<?xml version="1.0" standalone="no"?>
 <!DOCTYPE svg PUBLIC "-//W3C//DTD SVG 1.1//EN" 
 "http://www.w3.org/Graphics/SVG/1.1/DTD/svg11.dtd"> 
<svg xmlns="http://www.w3.org/2000/svg" version="1.1" 
    width="9.5377cm" height="9.1567cm" viewBox="0 0 37550 36050 ">
<title>SVG Picture created as Lightpainter-brd.svg date 2015/04/13 22:50:32 </title>
  <desc>Picture generated by PCBNEW </desc>
<g style="fill:#000000; fill-opacity:1;stroke:#000000; stroke-opacity:1;
stroke-linecap:round; stroke-linejoin:round; "
 transform="translate(0 0) scale(1 1)">
</g>
<g style="fill:#C2C200; fill-opacity:0.0; 
stroke:#C2C200; stroke-width:59.0551; stroke-opacity:1; 
stroke-linecap:round; stroke-linejoin:round;">
<path d="M29 29
L4529 29
" />
<path d="M29 36029
L29 29
" />
<path d="M37529 36029
L29 36029
" />
<path d="M37529 29
L37529 36029
" />
<path d="M529 29
L37529 29
" />
</g>
<g style="fill:#008484; fill-opacity:0.0; 
stroke:#008484; stroke-width:120; stroke-opacity:1; 
stroke-linecap:round; stroke-linejoin:round;">
<path d="M25843 7129
L25872 7158
L25900 7243
L25900 7300
L25872 7386
L25815 7443
L25758 7472
L25643 7500
L25558 7500
L25443 7472
L25386 7443
L25329 7386
L25300 7300
L25300 7243
L25329 7158
L25358 7129
" />
<path d="M25900 6558
L25900 6900
" />
<path d="M25900 6729
L25300 6729
L25386 6786
L25443 6843
L25472 6900
" />
<path d="M22900 7700
L22900 8043
" />
<path d="M22900 7872
L22300 7872
L22386 7929
L22443 7986
L22472 8043
" />
<path d="M22300 7329
L22300 7272
L22329 7215
L22358 7186
L22415 7158
L22529 7129
L22672 7129
L22786 7158
L22843 7186
L22872 7215
L22900 7272
L22900 7329
L22872 7386
L22843 7415
L22786 7443
L22672 7472
L22529 7472
L22415 7443
L22358 7415
L22329 7386
L22300 7329
" />
<path d="M22300 6758
L22300 6700
L22329 6643
L22358 6615
L22415 6586
L22529 6558
L22672 6558
L22786 6586
L22843 6615
L22872 6643
L22900 6700
L22900 6758
L22872 6815
L22843 6843
L22786 6872
L22672 6900
L22529 6900
L22415 6872
L22358 6843
L22329 6815
L22300 6758
" />
<path d="M22500 6043
L22900 6043
" />
<path d="M22500 6300
L22815 6300
L22872 6272
L22900 6215
L22900 6129
L22872 6072
L22843 6043
" />
<path d="M25343 10129
L25372 10158
L25400 10243
L25400 10300
L25372 10386
L25315 10443
L25258 10472
L25143 10500
L25058 10500
L24943 10472
L24886 10443
L24829 10386
L24800 10300
L24800 10243
L24829 10158
L24858 10129
" />
<path d="M24858 9900
L24829 9872
L24800 9815
L24800 9672
L24829 9615
L24858 9586
L24915 9558
L24972 9558
L25058 9586
L25400 9929
L25400 9558
" />
<path d="M22300 10700
L22300 11043
" />
<path d="M22300 10872
L21700 10872
L21786 10929
L21843 10986
L21872 11043
" />
<path d="M21700 10329
L21700 10272
L21729 10215
L21758 10186
L21815 10158
L21929 10129
L22072 10129
L22186 10158
L22243 10186
L22272 10215
L22300 10272
L22300 10329
L22272 10386
L22243 10415
L22186 10443
L22072 10472
L21929 10472
L21815 10443
L21758 10415
L21729 10386
L21700 10329
" />
<path d="M21700 9758
L21700 9700
L21729 9643
L21758 9615
L21815 9586
L21929 9558
L22072 9558
L22186 9586
L22243 9615
L22272 9643
L22300 9700
L22300 9758
L22272 9815
L22243 9843
L22186 9872
L22072 9900
L21929 9900
L21815 9872
L21758 9843
L21729 9815
L21700 9758
" />
<path d="M21900 9043
L22300 9043
" />
<path d="M21900 9300
L22215 9300
L22272 9272
L22300 9215
L22300 9129
L22272 9072
L22243 9043
" />
</g>
<g style="fill:#008484; fill-opacity:0.0; 
stroke:#008484; stroke-width:106; stroke-opacity:1; 
stroke-linecap:round; stroke-linejoin:round;">
<path d="M35348 8342
L34643 8342
" />
<path d="M35348 8100
L34945 8281
" />
<path d="M34643 8100
L35046 8342
" />
<path d="M35348 7696
L35348 7938
" />
<path d="M35348 7817
L34643 7817
L34744 7857
L34811 7898
L34844 7938
" />
</g>
<g style="fill:#008484; fill-opacity:0.0; 
stroke:#008484; stroke-width:120; stroke-opacity:1; 
stroke-linecap:round; stroke-linejoin:round;">
</g>
<g style="fill:#008484; fill-opacity:0.0; 
stroke:#008484; stroke-width:80; stroke-opacity:1; 
stroke-linecap:round; stroke-linejoin:round;">
<path d="M9278 15712
L9016 15879
" />
<path d="M9278 15998
L8728 15998
L8728 15808
L8754 15760
L8780 15736
L8833 15712
L8911 15712
L8964 15736
L8990 15760
L9016 15808
L9016 15998
" />
<path d="M9278 15236
L9278 15522
" />
<path d="M9278 15379
L8728 15379
L8806 15427
L8859 15474
L8885 15522
" />
<path d="M11278 15212
L11016 15379
" />
<path d="M11278 15498
L10728 15498
L10728 15308
L10754 15260
L10780 15236
L10833 15212
L10911 15212
L10964 15236
L10990 15260
L11016 15308
L11016 15498
" />
<path d="M10780 15022
L10754 14998
L10728 14950
L10728 14831
L10754 14784
L10780 14760
L10833 14736
L10885 14736
L10964 14760
L11278 15046
L11278 14736
" />
<path d="M6496 15891
L6553 15910
L6648 15910
L6686 15891
L6705 15872
L6724 15834
L6724 15796
L6705 15758
L6686 15739
L6648 15720
L6572 15700
L6534 15681
L6515 15662
L6496 15624
L6496 15586
L6515 15548
L6534 15529
L6572 15510
L6667 15510
L6724 15529
" />
<path d="M6858 15510
L6953 15910
L7029 15624
L7105 15910
L7200 15510
" />
<path d="M7562 15910
L7334 15910
" />
<path d="M7448 15910
L7448 15510
L7410 15567
L7372 15605
L7334 15624
" />
<path d="M5724 16591
L5781 16610
L5877 16610
L5915 16591
L5934 16572
L5953 16534
L5953 16496
L5934 16458
L5915 16439
L5877 16420
L5800 16400
L5762 16381
L5743 16362
L5724 16324
L5724 16286
L5743 16248
L5762 16229
L5800 16210
L5896 16210
L5953 16229
" />
<path d="M6086 16210
L6181 16610
L6258 16324
L6334 16610
L6429 16210
" />
<path d="M6486 16648
L6791 16648
" />
<path d="M6886 16610
L6886 16210
L7039 16210
L7077 16229
L7096 16248
L7115 16286
L7115 16343
L7096 16381
L7077 16400
L7039 16420
L6886 16420
" />
<path d="M7286 16210
L7286 16534
L7305 16572
L7324 16591
L7362 16610
L7439 16610
L7477 16591
L7496 16572
L7515 16534
L7515 16210
" />
<path d="M7686 16591
L7743 16610
L7839 16610
L7877 16591
L7896 16572
L7915 16534
L7915 16496
L7896 16458
L7877 16439
L7839 16420
L7762 16400
L7724 16381
L7705 16362
L7686 16324
L7686 16286
L7705 16248
L7724 16229
L7762 16210
L7858 16210
L7915 16229
" />
<path d="M8086 16610
L8086 16210
" />
<path d="M8086 16400
L8315 16400
" />
<path d="M8315 16610
L8315 16210
" />
<path d="M6496 21891
L6553 21910
L6648 21910
L6686 21891
L6705 21872
L6724 21834
L6724 21796
L6705 21758
L6686 21739
L6648 21720
L6572 21700
L6534 21681
L6515 21662
L6496 21624
L6496 21586
L6515 21548
L6534 21529
L6572 21510
L6667 21510
L6724 21529
" />
<path d="M6858 21510
L6953 21910
L7029 21624
L7105 21910
L7200 21510
" />
<path d="M7334 21548
L7353 21529
L7391 21510
L7486 21510
L7524 21529
L7543 21548
L7562 21586
L7562 21624
L7543 21681
L7315 21910
L7562 21910
" />
<path d="M5724 22591
L5781 22610
L5877 22610
L5915 22591
L5934 22572
L5953 22534
L5953 22496
L5934 22458
L5915 22439
L5877 22420
L5800 22400
L5762 22381
L5743 22362
L5724 22324
L5724 22286
L5743 22248
L5762 22229
L5800 22210
L5896 22210
L5953 22229
" />
<path d="M6086 22210
L6181 22610
L6258 22324
L6334 22610
L6429 22210
" />
<path d="M6486 22648
L6791 22648
" />
<path d="M6886 22610
L6886 22210
L7039 22210
L7077 22229
L7096 22248
L7115 22286
L7115 22343
L7096 22381
L7077 22400
L7039 22420
L6886 22420
" />
<path d="M7286 22210
L7286 22534
L7305 22572
L7324 22591
L7362 22610
L7439 22610
L7477 22591
L7496 22572
L7515 22534
L7515 22210
" />
<path d="M7686 22591
L7743 22610
L7839 22610
L7877 22591
L7896 22572
L7915 22534
L7915 22496
L7896 22458
L7877 22439
L7839 22420
L7762 22400
L7724 22381
L7705 22362
L7686 22324
L7686 22286
L7705 22248
L7724 22229
L7762 22210
L7858 22210
L7915 22229
" />
<path d="M8086 22610
L8086 22210
" />
<path d="M8086 22400
L8315 22400
" />
<path d="M8315 22610
L8315 22210
" />
</g>
<g style="fill:#008484; fill-opacity:0.0; 
stroke:#008484; stroke-width:59.0551; stroke-opacity:1; 
stroke-linecap:round; stroke-linejoin:round;">
<path d="M24706 8479
L25184 8479
L25240 8451
L25268 8423
L25296 8366
L25296 8254
L25268 8198
L25240 8170
L25184 8142
L24706 8142
" />
<path d="M25296 7551
L25296 7888
" />
<path d="M25296 7720
L24706 7720
L24790 7776
L24846 7832
L24874 7888
" />
<path d="M28706 9309
L28706 8915
L29296 9168
" />
<path d="M28959 8606
L28931 8662
L28902 8690
L28846 8718
L28818 8718
L28762 8690
L28734 8662
L28706 8606
L28706 8493
L28734 8437
L28762 8409
L28818 8381
L28846 8381
L28902 8409
L28931 8437
L28959 8493
L28959 8606
L28987 8662
L29015 8690
L29071 8718
L29184 8718
L29240 8690
L29268 8662
L29296 8606
L29296 8493
L29268 8437
L29240 8409
L29184 8381
L29071 8381
L29015 8409
L28987 8437
L28959 8493
" />
<path d="M29296 7846
L29296 8127
L28706 8127
" />
<path d="M28706 7537
L28706 7481
L28734 7424
L28762 7396
L28818 7368
L28931 7340
L29071 7340
L29184 7368
L29240 7396
L29268 7424
L29296 7481
L29296 7537
L29268 7593
L29240 7621
L29184 7649
L29071 7678
L28931 7678
L28818 7649
L28762 7621
L28734 7593
L28706 7537
" />
<path d="M28706 6806
L28706 7087
L28987 7115
L28959 7087
L28931 7031
L28931 6890
L28959 6834
L28987 6806
L29043 6778
L29184 6778
L29240 6806
L29268 6834
L29296 6890
L29296 7031
L29268 7087
L29240 7115
" />
<path d="M16579 3706
L16579 4184
L16607 4240
L16635 4268
L16692 4296
L16804 4296
L16860 4268
L16888 4240
L16917 4184
L16917 3706
" />
<path d="M17170 3762
L17198 3734
L17254 3706
L17395 3706
L17451 3734
L17479 3762
L17507 3818
L17507 3874
L17479 3959
L17142 4296
L17507 4296
" />
<path d="M13429 23127
L13711 23127
" />
<path d="M13373 23296
L13570 22706
L13767 23296
" />
<path d="M13964 23296
L13964 22902
" />
<path d="M13964 23015
L13992 22959
L14020 22931
L14076 22902
L14133 22902
" />
<path d="M14582 23296
L14582 22706
" />
<path d="M14582 23268
L14526 23296
L14414 23296
L14357 23268
L14329 23240
L14301 23184
L14301 23015
L14329 22959
L14357 22931
L14414 22902
L14526 22902
L14582 22931
" />
<path d="M15117 22902
L15117 23296
" />
<path d="M14864 22902
L14864 23212
L14892 23268
L14948 23296
L15032 23296
L15089 23268
L15117 23240
" />
<path d="M15398 23296
L15398 22902
" />
<path d="M15398 22706
L15370 22734
L15398 22762
L15426 22734
L15398 22706
L15398 22762
" />
<path d="M15679 22902
L15679 23296
" />
<path d="M15679 22959
L15707 22931
L15764 22902
L15848 22902
L15904 22931
L15932 22987
L15932 23296
" />
<path d="M16298 23296
L16242 23268
L16214 23240
L16185 23184
L16185 23015
L16214 22959
L16242 22931
L16298 22902
L16382 22902
L16438 22931
L16467 22959
L16495 23015
L16495 23184
L16467 23240
L16438 23268
L16382 23296
L16298 23296
" />
<path d="M16607 23352
L17057 23352
" />
<path d="M17198 23296
L17198 22706
L17535 23296
L17535 22706
" />
<path d="M18070 23296
L18070 22987
L18041 22931
L17985 22902
L17873 22902
L17816 22931
" />
<path d="M18070 23268
L18013 23296
L17873 23296
L17816 23268
L17788 23212
L17788 23156
L17816 23099
L17873 23071
L18013 23071
L18070 23043
" />
<path d="M18351 22902
L18351 23296
" />
<path d="M18351 22959
L18379 22931
L18435 22902
L18519 22902
L18576 22931
L18604 22987
L18604 23296
" />
<path d="M18969 23296
L18913 23268
L18885 23240
L18857 23184
L18857 23015
L18885 22959
L18913 22931
L18969 22902
L19054 22902
L19110 22931
L19138 22959
L19166 23015
L19166 23184
L19138 23240
L19110 23268
L19054 23296
L18969 23296
" />
<path d="M19279 23352
L19729 23352
" />
<path d="M19813 22902
L19954 23296
L20094 22902
" />
<path d="M20263 22706
L20629 22706
L20432 22931
L20516 22931
L20572 22959
L20600 22987
L20629 23043
L20629 23184
L20600 23240
L20572 23268
L20516 23296
L20347 23296
L20291 23268
L20263 23240
" />
</g>
<g style="fill:#008484; fill-opacity:0.0; 
stroke:#008484; stroke-width:107; stroke-opacity:1; 
stroke-linecap:round; stroke-linejoin:round;">
<path d="M11656 32355
L12207 32355
L12272 32335
L12305 32314
L12337 32274
L12337 32192
L12305 32151
L12272 32131
L12207 32111
L11656 32111
" />
<path d="M11656 31948
L11656 31683
L11916 31825
L11916 31764
L11948 31723
L11980 31703
L12045 31683
L12207 31683
L12272 31703
L12305 31723
L12337 31764
L12337 31886
L12305 31927
L12272 31948
" />
</g>
<g style="fill:#008484; fill-opacity:0.0; 
stroke:#008484; stroke-width:120; stroke-opacity:1; 
stroke-linecap:round; stroke-linejoin:round;">
</g>
<g style="fill:#008484; fill-opacity:0.0; 
stroke:#008484; stroke-width:100; stroke-opacity:1; 
stroke-linecap:round; stroke-linejoin:round;">
<path d="M12272 29824
L12300 29767
L12300 29672
L12272 29634
L12243 29615
L12186 29596
L12129 29596
L12072 29615
L12043 29634
L12015 29672
L11986 29748
L11958 29786
L11929 29805
L11872 29824
L11815 29824
L11758 29805
L11729 29786
L11700 29748
L11700 29653
L11729 29596
" />
<path d="M12300 29424
L11700 29424
L11700 29329
L11729 29272
L11786 29234
L11843 29215
L11958 29196
L12043 29196
L12158 29215
L12215 29234
L12272 29272
L12300 29329
L12300 29424
" />
<path d="M12358 29120
L12358 28815
" />
<path d="M12243 28491
L12272 28510
L12300 28567
L12300 28605
L12272 28662
L12215 28700
L12158 28720
L12043 28739
L11958 28739
L11843 28720
L11786 28700
L11729 28662
L11700 28605
L11700 28567
L11729 28510
L11758 28491
" />
<path d="M12300 28148
L11986 28148
L11929 28167
L11900 28205
L11900 28281
L11929 28320
" />
<path d="M12272 28148
L12300 28186
L12300 28281
L12272 28320
L12215 28339
L12158 28339
L12100 28320
L12072 28281
L12072 28186
L12043 28148
" />
<path d="M12300 27958
L11900 27958
" />
<path d="M12015 27958
L11958 27939
L11929 27920
L11900 27881
L11900 27843
" />
<path d="M12300 27539
L11700 27539
" />
<path d="M12272 27539
L12300 27577
L12300 27653
L12272 27691
L12243 27710
L12186 27729
L12015 27729
L11958 27710
L11929 27691
L11900 27653
L11900 27577
L11929 27539
" />
<path d="M12358 27443
L12358 27139
" />
<path d="M12272 27062
L12300 27005
L12300 26910
L12272 26872
L12243 26853
L12186 26834
L12129 26834
L12072 26853
L12043 26872
L12015 26910
L11986 26986
L11958 27024
L11929 27043
L11872 27062
L11815 27062
L11758 27043
L11729 27024
L11700 26986
L11700 26891
L11729 26834
" />
<path d="M12300 26605
L12272 26643
L12243 26662
L12186 26681
L12015 26681
L11958 26662
L11929 26643
L11900 26605
L11900 26548
L11929 26510
L11958 26491
L12015 26472
L12186 26472
L12243 26491
L12272 26510
L12300 26548
L12300 26605
" />
<path d="M12272 26129
L12300 26167
L12300 26243
L12272 26281
L12243 26300
L12186 26320
L12015 26320
L11958 26300
L11929 26281
L11900 26243
L11900 26167
L11929 26129
" />
<path d="M12300 25958
L11700 25958
" />
<path d="M12072 25920
L12300 25805
" />
<path d="M11900 25805
L12129 25958
" />
<path d="M12272 25481
L12300 25520
L12300 25596
L12272 25634
L12215 25653
L11986 25653
L11929 25634
L11900 25596
L11900 25520
L11929 25481
L11986 25462
L12043 25462
L12100 25653
" />
<path d="M11900 25348
L11900 25196
" />
<path d="M11700 25291
L12215 25291
L12272 25272
L12300 25234
L12300 25196
" />
</g>
<g style="fill:#008484; fill-opacity:0.0; 
stroke:#008484; stroke-width:120; stroke-opacity:1; 
stroke-linecap:round; stroke-linejoin:round;">
</g>
<g style="fill:#008484; fill-opacity:0.0; 
stroke:#008484; stroke-width:98; stroke-opacity:1; 
stroke-linecap:round; stroke-linejoin:round;">
<path d="M23149 8529
L24909 8529
" />
<path d="M23149 5529
L24909 5529
" />
</g>
<g style="fill:#008484; fill-opacity:0.0; 
stroke:#008484; stroke-width:100; stroke-opacity:1; 
stroke-linecap:round; stroke-linejoin:round;">
<path d="M24909 5529
L24909 8529
" />
<path d="M23149 8529
L23149 5529
" />
</g>
<g style="fill:#008484; fill-opacity:0.0; 
stroke:#008484; stroke-width:98; stroke-opacity:1; 
stroke-linecap:round; stroke-linejoin:round;">
<path d="M22649 11529
L24409 11529
" />
<path d="M22649 8529
L24409 8529
" />
</g>
<g style="fill:#008484; fill-opacity:0.0; 
stroke:#008484; stroke-width:100; stroke-opacity:1; 
stroke-linecap:round; stroke-linejoin:round;">
<path d="M24409 8529
L24409 11529
" />
<path d="M22649 11529
L22649 8529
" />
</g>
<g style="fill:#008484; fill-opacity:0.0; 
stroke:#008484; stroke-width:120; stroke-opacity:1; 
stroke-linecap:round; stroke-linejoin:round;">
<path d="M33029 6529
L34029 6529
" />
<path d="M34029 6529
L34029 9529
" />
<path d="M34029 9529
L33029 9529
" />
<path d="M33029 9529
L33029 6529
" />
<path d="M34029 7529
L33029 7529
" />
</g>
<g style="fill:#008484; fill-opacity:0.0; 
stroke:#008484; stroke-width:150; stroke-opacity:1; 
stroke-linecap:round; stroke-linejoin:round;">
<path d="M10029 15529
L10029 16529
" />
<circle cx="10029.5" cy="15529.5" r="559.017" /> 
<path d="M12029 15029
L12029 16029
" />
<circle cx="12029.5" cy="15029.5" r="559.017" /> 
</g>
<g style="fill:#008484; fill-opacity:0.0; 
stroke:#008484; stroke-width:50; stroke-opacity:1; 
stroke-linecap:round; stroke-linejoin:round;">
<circle cx="7029.53" cy="16029.5" r="1000" /> 
<path d="M5529 14529
L8529 14529
" />
<path d="M8529 14529
L8529 17529
" />
<path d="M8529 17529
L5529 17529
" />
<path d="M5529 14529
L5529 17529
" />
<circle cx="7029.53" cy="22029.5" r="1000" /> 
<path d="M5529 20529
L8529 20529
" />
<path d="M8529 20529
L8529 23529
" />
<path d="M8529 23529
L5529 23529
" />
<path d="M5529 20529
L5529 23529
" />
</g>
<g style="fill:#008484; fill-opacity:0.0; 
stroke:#008484; stroke-width:59.0551; stroke-opacity:1; 
stroke-linecap:round; stroke-linejoin:round;">
<path d="M28029 10029
L28229 10029
" />
<path d="M28229 6029
L28229 10029
" />
<path d="M28029 6029
L28229 6029
" />
<path d="M28229 6029
L28029 6029
" />
<path d="M28029 10029
L26029 10029
" />
<path d="M26029 6029
L26029 10029
" />
<path d="M28029 6029
L26029 6029
" />
<path d="M28029 6029
L28029 10029
" />
<path d="M28029 10029
L28029 6029
" />
<path d="M21029 24029
L21029 22029
" />
<path d="M13029 24029
L13029 22029
" />
<path d="M18029.5 5029.53 A1000 1000 0.0 0 0 17029.5 4029.53 " />
<path d="M17029.5 4029.53 A1000 1000 0.0 0 0 16029.5 5029.53 " />
<path d="M13029 24029
L21029 24029
" />
<path d="M13029 5029
L13029 22029
" />
<path d="M13029 22029
L13029 5029
" />
<path d="M21029 5029
L21029 22029
" />
<path d="M13029 5029
L21029 5029
" />
<path d="M21029 5029
L13029 5029
" />
<path d="M13029 5029
L21029 5029
" />
</g>
<g style="fill:#008484; fill-opacity:0.0; 
stroke:#008484; stroke-width:120; stroke-opacity:1; 
stroke-linecap:round; stroke-linejoin:round;">
<path d="M12529 33529
L12529 25529
" />
<path d="M12529 25529
L13529 25529
" />
<path d="M13529 25529
L13529 33529
" />
<path d="M13529 33529
L12529 33529
" />
<path d="M13529 32529
L12529 32529
" />
</g>
<g style="fill:#840000; fill-opacity:0.0; 
stroke:#840000; stroke-width:39.3701; stroke-opacity:1; 
stroke-linecap:round; stroke-linejoin:round;">
</g>
<g style="fill:#840000; fill-opacity:1.0; 
stroke:#840000; stroke-width:39.3701; stroke-opacity:1; 
stroke-linecap:round; stroke-linejoin:round;">
<circle cx="24029.5" cy="6029.53" r="373.815" /> 
<circle cx="24029.5" cy="8029.53" r="373.815" /> 
<circle cx="23529.5" cy="9029.53" r="373.815" /> 
<circle cx="23529.5" cy="11029.5" r="373.815" /> 
<polyline style="fill-rule:evenodd;"
points="33274,6774
33784,6774
33784,7284
33274,7284
33274,6774
" /> 
<circle cx="33529.5" cy="8029.53" r="255.315" /> 
<circle cx="33529.5" cy="9029.53" r="255.315" /> 
<circle cx="10029.5" cy="15529.5" r="255.315" /> 
<circle cx="10029.5" cy="16529.5" r="255.315" /> 
<circle cx="12029.5" cy="15029.5" r="255.315" /> 
<circle cx="12029.5" cy="16029.5" r="255.315" /> 
<circle cx="8529.53" cy="15029.5" r="255.315" /> 
<circle cx="8529.53" cy="17029.5" r="255.315" /> 
<circle cx="5529.53" cy="15029.5" r="255.315" /> 
<circle cx="5529.53" cy="17029.5" r="255.315" /> 
<circle cx="8529.53" cy="21029.5" r="255.315" /> 
<circle cx="8529.53" cy="23029.5" r="255.315" /> 
<circle cx="5529.53" cy="21029.5" r="255.315" /> 
<circle cx="5529.53" cy="23029.5" r="255.315" /> 
<circle cx="27029.5" cy="8029.53" r="255.906" /> 
<circle cx="27029.5" cy="7029.53" r="255.906" /> 
<circle cx="27029.5" cy="9029.53" r="255.906" /> 
<circle cx="14029.5" cy="7029.53" r="255.906" /> 
<circle cx="14029.5" cy="8029.53" r="255.906" /> 
<circle cx="14029.5" cy="9029.53" r="255.906" /> 
<circle cx="14029.5" cy="10029.5" r="255.906" /> 
<circle cx="14029.5" cy="11029.5" r="255.906" /> 
<circle cx="14029.5" cy="12029.5" r="255.906" /> 
<circle cx="14029.5" cy="13029.5" r="255.906" /> 
<circle cx="14029.5" cy="14029.5" r="255.906" /> 
<circle cx="14029.5" cy="15029.5" r="255.906" /> 
<circle cx="14029.5" cy="16029.5" r="255.906" /> 
<circle cx="14029.5" cy="17029.5" r="255.906" /> 
<circle cx="14029.5" cy="18029.5" r="255.906" /> 
<circle cx="14029.5" cy="19029.5" r="255.906" /> 
<circle cx="14029.5" cy="20029.5" r="255.906" /> 
<circle cx="14029.5" cy="21029.5" r="255.906" /> 
<circle cx="20029.5" cy="7029.53" r="255.906" /> 
<circle cx="20029.5" cy="8029.53" r="255.906" /> 
<circle cx="20029.5" cy="9029.53" r="255.906" /> 
<circle cx="20029.5" cy="10029.5" r="255.906" /> 
<circle cx="20029.5" cy="11029.5" r="255.906" /> 
<circle cx="20029.5" cy="12029.5" r="255.906" /> 
<circle cx="20029.5" cy="13029.5" r="255.906" /> 
<circle cx="20029.5" cy="14029.5" r="255.906" /> 
<circle cx="20029.5" cy="15029.5" r="255.906" /> 
<circle cx="20029.5" cy="16029.5" r="255.906" /> 
<circle cx="20029.5" cy="17029.5" r="255.906" /> 
<circle cx="20029.5" cy="18029.5" r="255.906" /> 
<circle cx="20029.5" cy="19029.5" r="255.906" /> 
<circle cx="20029.5" cy="20029.5" r="255.906" /> 
<circle cx="20029.5" cy="21029.5" r="255.906" /> 
<polyline style="fill-rule:evenodd;"
points="13284,33284
12774,33284
12774,32774
13284,32774
13284,33284
" /> 
<circle cx="13029.5" cy="32029.5" r="255.315" /> 
<circle cx="13029.5" cy="31029.5" r="255.315" /> 
<circle cx="13029.5" cy="30029.5" r="255.315" /> 
<circle cx="13029.5" cy="29029.5" r="255.315" /> 
<circle cx="13029.5" cy="28029.5" r="255.315" /> 
<circle cx="13029.5" cy="27029.5" r="255.315" /> 
<circle cx="13029.5" cy="26029.5" r="255.315" /> 
</g>
<g style="fill:#C2C2C2; fill-opacity:1.0; 
stroke:#C2C2C2; stroke-width:39.3701; stroke-opacity:1; 
stroke-linecap:round; stroke-linejoin:round;">
<circle cx="12029.5" cy="2029.53" r="155.315" /> 
<circle cx="9529.53" cy="1529.53" r="155.315" /> 
<circle cx="19029.5" cy="1529.53" r="155.315" /> 
<circle cx="19029.5" cy="10029.5" r="155.315" /> 
<circle cx="22029.5" cy="31029.5" r="155.315" /> 
<circle cx="22029.5" cy="10029.5" r="155.315" /> 
<circle cx="17529.5" cy="8029.53" r="155.315" /> 
<circle cx="17529.5" cy="10029.5" r="155.315" /> 
<circle cx="33529.5" cy="7029.53" r="155.315" /> 
<circle cx="29529.5" cy="8029.53" r="155.315" /> 
<circle cx="29529.5" cy="7029.53" r="155.315" /> 
<circle cx="25029.5" cy="8029.53" r="155.315" /> 
<circle cx="25029.5" cy="11029.5" r="155.315" /> 
<circle cx="10029.5" cy="33029.5" r="155.315" /> 
<circle cx="10029.5" cy="21029.5" r="155.315" /> 
<circle cx="10029.5" cy="26029.5" r="155.315" /> 
<circle cx="3029.53" cy="10029.5" r="155.315" /> 
<circle cx="13029.5" cy="10029.5" r="155.315" /> 
<circle cx="3029.53" cy="21029.5" r="230.315" /> 
<circle cx="3029.53" cy="15029.5" r="230.315" /> 
<circle cx="14029.5" cy="10029.5" r="155.315" /> 
<circle cx="13029.5" cy="26029.5" r="155.315" /> 
<circle cx="16029.5" cy="23029.5" r="155.315" /> 
<circle cx="16029.5" cy="16029.5" r="155.315" /> 
<circle cx="12029.5" cy="16029.5" r="155.315" /> 
<circle cx="11029.5" cy="30029.5" r="155.315" /> 
<circle cx="11029.5" cy="19029.5" r="155.315" /> 
<circle cx="12029.5" cy="29029.5" r="155.315" /> 
<circle cx="12029.5" cy="20029.5" r="155.315" /> 
<circle cx="15029.5" cy="21029.5" r="155.315" /> 
<circle cx="15029.5" cy="27029.5" r="155.315" /> 
<circle cx="24029.5" cy="28029.5" r="155.315" /> 
<circle cx="24029.5" cy="21029.5" r="155.315" /> 
<circle cx="31029.5" cy="8029.53" r="155.315" /> 
<circle cx="31029.5" cy="3029.53" r="155.315" /> 
<circle cx="16029.5" cy="15029.5" r="155.315" /> 
<circle cx="16029.5" cy="3029.53" r="155.315" /> 
<circle cx="22029.5" cy="7029.53" r="155.315" /> 
<circle cx="22029.5" cy="6029.53" r="155.315" /> 
<circle cx="25529.5" cy="6029.53" r="155.315" /> 
<circle cx="25529.5" cy="7029.53" r="155.315" /> 
</g>
<g style="fill:#008400; fill-opacity:1.0; 
stroke:#008400; stroke-width:500; stroke-opacity:1; 
stroke-linecap:round; stroke-linejoin:round;">
<path d="M12029 1529
L12029 2029
" />
</g>
<g style="fill:#840000; fill-opacity:1.0; 
stroke:#840000; stroke-width:500; stroke-opacity:1; 
stroke-linecap:round; stroke-linejoin:round;">
<path d="M12029 15029
L12029 2029
" />
</g>
<g style="fill:#008400; fill-opacity:1.0; 
stroke:#008400; stroke-width:500; stroke-opacity:1; 
stroke-linecap:round; stroke-linejoin:round;">
<path d="M20029 10029
L19029 10029
" />
</g>
<g style="fill:#840000; fill-opacity:1.0; 
stroke:#840000; stroke-width:500; stroke-opacity:1; 
stroke-linecap:round; stroke-linejoin:round;">
<path d="M10029 2029
L10029 15529
" />
<path d="M9529 1529
L10029 2029
" />
</g>
<g style="fill:#008400; fill-opacity:1.0; 
stroke:#008400; stroke-width:500; stroke-opacity:1; 
stroke-linecap:round; stroke-linejoin:round;">
<path d="M19029 1529
L12029 1529
" />
<path d="M12029 1529
L9529 1529
" />
</g>
<g style="fill:#840000; fill-opacity:1.0; 
stroke:#840000; stroke-width:500; stroke-opacity:1; 
stroke-linecap:round; stroke-linejoin:round;">
<path d="M19029 10029
L19029 1529
" />
</g>
<g style="fill:#008400; fill-opacity:1.0; 
stroke:#008400; stroke-width:500; stroke-opacity:1; 
stroke-linecap:round; stroke-linejoin:round;">
<path d="M13029 31029
L10029 31029
" />
<path d="M20029 10029
L22029 10029
" />
<path d="M22029 31029
L13029 31029
" />
</g>
<g style="fill:#840000; fill-opacity:1.0; 
stroke:#840000; stroke-width:500; stroke-opacity:1; 
stroke-linecap:round; stroke-linejoin:round;">
<path d="M22029 10029
L22029 31029
" />
</g>
<g style="fill:#008400; fill-opacity:1.0; 
stroke:#008400; stroke-width:500; stroke-opacity:1; 
stroke-linecap:round; stroke-linejoin:round;">
<path d="M33529 9029
L27029 9029
" />
<path d="M27029 9029
L23529 9029
" />
<path d="M14029 10029
L17529 10029
" />
<path d="M17529 8029
L20029 8029
" />
</g>
<g style="fill:#840000; fill-opacity:1.0; 
stroke:#840000; stroke-width:500; stroke-opacity:1; 
stroke-linecap:round; stroke-linejoin:round;">
<path d="M17529 10029
L17529 8029
" />
</g>
<g style="fill:#008400; fill-opacity:1.0; 
stroke:#008400; stroke-width:500; stroke-opacity:1; 
stroke-linecap:round; stroke-linejoin:round;">
<path d="M33529 7029
L29529 7029
" />
<path d="M29529 8029
L27029 8029
" />
</g>
<g style="fill:#840000; fill-opacity:1.0; 
stroke:#840000; stroke-width:500; stroke-opacity:1; 
stroke-linecap:round; stroke-linejoin:round;">
<path d="M29529 7029
L29529 8029
" />
</g>
<g style="fill:#008400; fill-opacity:1.0; 
stroke:#008400; stroke-width:500; stroke-opacity:1; 
stroke-linecap:round; stroke-linejoin:round;">
<path d="M24029 8029
L20029 8029
" />
<path d="M25029 8029
L27029 8029
" />
<path d="M23529 11029
L25029 11029
" />
<path d="M25029 8029
L24029 8029
" />
</g>
<g style="fill:#840000; fill-opacity:1.0; 
stroke:#840000; stroke-width:500; stroke-opacity:1; 
stroke-linecap:round; stroke-linejoin:round;">
<path d="M25029 11029
L25029 8029
" />
<path d="M10029 31029
L10029 33029
" />
<path d="M10029 26029
L10029 31029
" />
</g>
<g style="fill:#008400; fill-opacity:1.0; 
stroke:#008400; stroke-width:500; stroke-opacity:1; 
stroke-linecap:round; stroke-linejoin:round;">
<path d="M10029 33029
L13029 33029
" />
<path d="M13029 26029
L10029 26029
" />
<path d="M10029 21029
L5529 21029
" />
</g>
<g style="fill:#840000; fill-opacity:1.0; 
stroke:#840000; stroke-width:500; stroke-opacity:1; 
stroke-linecap:round; stroke-linejoin:round;">
<path d="M10029 26029
L10029 21029
" />
<path d="M14029 10029
L13029 10029
" />
<path d="M3029 10029
L3029 15029
" />
</g>
<g style="fill:#008400; fill-opacity:1.0; 
stroke:#008400; stroke-width:500; stroke-opacity:1; 
stroke-linecap:round; stroke-linejoin:round;">
<path d="M13029 10029
L3029 10029
" />
<path d="M5529 21029
L3029 21029
" />
</g>
<g style="fill:#840000; fill-opacity:1.0; 
stroke:#840000; stroke-width:500; stroke-opacity:1; 
stroke-linecap:round; stroke-linejoin:round;">
<path d="M3029 21029
L3029 15029
" />
</g>
<g style="fill:#008400; fill-opacity:1.0; 
stroke:#008400; stroke-width:500; stroke-opacity:1; 
stroke-linecap:round; stroke-linejoin:round;">
<path d="M3029 15029
L5529 15029
" />
<path d="M5529 15029
L8529 15029
" />
</g>
<g style="fill:#840000; fill-opacity:1.0; 
stroke:#840000; stroke-width:100; stroke-opacity:1; 
stroke-linecap:round; stroke-linejoin:round;">
<path d="M8529 21529
L8529 21029
" />
</g>
<g style="fill:#008400; fill-opacity:1.0; 
stroke:#008400; stroke-width:500; stroke-opacity:1; 
stroke-linecap:round; stroke-linejoin:round;">
<path d="M5529 17029
L8529 17029
" />
<path d="M8529 17029
L10029 17029
" />
<path d="M10029 17029
L10029 16529
" />
<path d="M10029 16529
L10029 17029
" />
<path d="M10029 17029
L14029 17029
" />
<path d="M14029 16029
L16029 16029
" />
<path d="M16029 23029
L8529 23029
" />
</g>
<g style="fill:#840000; fill-opacity:1.0; 
stroke:#840000; stroke-width:500; stroke-opacity:1; 
stroke-linecap:round; stroke-linejoin:round;">
<path d="M16029 16029
L16029 23029
" />
</g>
<g style="fill:#008400; fill-opacity:1.0; 
stroke:#008400; stroke-width:500; stroke-opacity:1; 
stroke-linecap:round; stroke-linejoin:round;">
<path d="M12029 16029
L14029 16029
" />
<path d="M5529 23029
L3029 23029
" />
<path d="M8529 23029
L5529 23029
" />
<path d="M14029 19029
L11029 19029
" />
<path d="M11029 30029
L13029 30029
" />
</g>
<g style="fill:#840000; fill-opacity:1.0; 
stroke:#840000; stroke-width:500; stroke-opacity:1; 
stroke-linecap:round; stroke-linejoin:round;">
<path d="M11029 19029
L11029 30029
" />
</g>
<g style="fill:#008400; fill-opacity:1.0; 
stroke:#008400; stroke-width:500; stroke-opacity:1; 
stroke-linecap:round; stroke-linejoin:round;">
<path d="M14029 20029
L12029 20029
" />
<path d="M12029 29029
L13029 29029
" />
</g>
<g style="fill:#840000; fill-opacity:1.0; 
stroke:#840000; stroke-width:500; stroke-opacity:1; 
stroke-linecap:round; stroke-linejoin:round;">
<path d="M12029 20029
L12029 29029
" />
</g>
<g style="fill:#008400; fill-opacity:1.0; 
stroke:#008400; stroke-width:500; stroke-opacity:1; 
stroke-linecap:round; stroke-linejoin:round;">
<path d="M13029 27029
L15029 27029
" />
<path d="M15029 21029
L14029 21029
" />
</g>
<g style="fill:#840000; fill-opacity:1.0; 
stroke:#840000; stroke-width:500; stroke-opacity:1; 
stroke-linecap:round; stroke-linejoin:round;">
<path d="M15029 27029
L15029 21029
" />
</g>
<g style="fill:#008400; fill-opacity:1.0; 
stroke:#008400; stroke-width:100; stroke-opacity:1; 
stroke-linecap:round; stroke-linejoin:round;">
<path d="M12529 27029
L13029 27029
" />
</g>
<g style="fill:#008400; fill-opacity:1.0; 
stroke:#008400; stroke-width:500; stroke-opacity:1; 
stroke-linecap:round; stroke-linejoin:round;">
<path d="M20029 21029
L24029 21029
" />
<path d="M24029 28029
L13029 28029
" />
</g>
<g style="fill:#840000; fill-opacity:1.0; 
stroke:#840000; stroke-width:500; stroke-opacity:1; 
stroke-linecap:round; stroke-linejoin:round;">
<path d="M24029 21029
L24029 28029
" />
<path d="M31029 3029
L31029 8029
" />
<path d="M16029 15029
L16029 3029
" />
</g>
<g style="fill:#008400; fill-opacity:1.0; 
stroke:#008400; stroke-width:500; stroke-opacity:1; 
stroke-linecap:round; stroke-linejoin:round;">
<path d="M14029 15029
L16029 15029
" />
<path d="M16029 3029
L31029 3029
" />
<path d="M31029 8029
L33529 8029
" />
<path d="M24029 6029
L22029 6029
" />
<path d="M22029 7029
L20029 7029
" />
</g>
<g style="fill:#840000; fill-opacity:1.0; 
stroke:#840000; stroke-width:500; stroke-opacity:1; 
stroke-linecap:round; stroke-linejoin:round;">
<path d="M22029 6029
L22029 7029
" />
</g>
<g style="fill:#008400; fill-opacity:1.0; 
stroke:#008400; stroke-width:500; stroke-opacity:1; 
stroke-linecap:round; stroke-linejoin:round;">
<path d="M27029 7029
L25529 7029
" />
<path d="M25529 6029
L24029 6029
" />
</g>
<g style="fill:#840000; fill-opacity:1.0; 
stroke:#840000; stroke-width:500; stroke-opacity:1; 
stroke-linecap:round; stroke-linejoin:round;">
<path d="M25529 7029
L25529 6029
" />
</g>
<g style="fill:#FFFFFF; fill-opacity:1.0; 
stroke:#FFFFFF; stroke-width:39.3701; stroke-opacity:1; 
stroke-linecap:round; stroke-linejoin:round;">
<circle cx="12029.5" cy="2029.53" r="105.315" /> 
<circle cx="9529.53" cy="1529.53" r="105.315" /> 
<circle cx="19029.5" cy="1529.53" r="105.315" /> 
<circle cx="19029.5" cy="10029.5" r="105.315" /> 
<circle cx="22029.5" cy="31029.5" r="105.315" /> 
<circle cx="22029.5" cy="10029.5" r="105.315" /> 
<circle cx="17529.5" cy="8029.53" r="105.315" /> 
<circle cx="17529.5" cy="10029.5" r="105.315" /> 
<circle cx="33529.5" cy="7029.53" r="105.315" /> 
<circle cx="29529.5" cy="8029.53" r="105.315" /> 
<circle cx="29529.5" cy="7029.53" r="105.315" /> 
<circle cx="25029.5" cy="8029.53" r="105.315" /> 
<circle cx="25029.5" cy="11029.5" r="105.315" /> 
<circle cx="10029.5" cy="33029.5" r="105.315" /> 
<circle cx="10029.5" cy="21029.5" r="105.315" /> 
<circle cx="10029.5" cy="26029.5" r="105.315" /> 
<circle cx="3029.53" cy="10029.5" r="105.315" /> 
<circle cx="13029.5" cy="10029.5" r="105.315" /> 
<circle cx="3029.53" cy="21029.5" r="105.315" /> 
<circle cx="3029.53" cy="15029.5" r="105.315" /> 
<circle cx="14029.5" cy="10029.5" r="105.315" /> 
<circle cx="13029.5" cy="26029.5" r="105.315" /> 
<circle cx="16029.5" cy="23029.5" r="105.315" /> 
<circle cx="16029.5" cy="16029.5" r="105.315" /> 
<circle cx="12029.5" cy="16029.5" r="105.315" /> 
<circle cx="11029.5" cy="30029.5" r="105.315" /> 
<circle cx="11029.5" cy="19029.5" r="105.315" /> 
<circle cx="12029.5" cy="29029.5" r="105.315" /> 
<circle cx="12029.5" cy="20029.5" r="105.315" /> 
<circle cx="15029.5" cy="21029.5" r="105.315" /> 
<circle cx="15029.5" cy="27029.5" r="105.315" /> 
<circle cx="24029.5" cy="28029.5" r="105.315" /> 
<circle cx="24029.5" cy="21029.5" r="105.315" /> 
<circle cx="31029.5" cy="8029.53" r="105.315" /> 
<circle cx="31029.5" cy="3029.53" r="105.315" /> 
<circle cx="16029.5" cy="15029.5" r="105.315" /> 
<circle cx="16029.5" cy="3029.53" r="105.315" /> 
<circle cx="22029.5" cy="7029.53" r="105.315" /> 
<circle cx="22029.5" cy="6029.53" r="105.315" /> 
<circle cx="25529.5" cy="6029.53" r="105.315" /> 
<circle cx="25529.5" cy="7029.53" r="105.315" /> 
<circle cx="24029.5" cy="6029.53" r="137.815" /> 
<circle cx="24029.5" cy="8029.53" r="137.815" /> 
<circle cx="23529.5" cy="9029.53" r="137.815" /> 
<circle cx="23529.5" cy="11029.5" r="137.815" /> 
<circle cx="33529.5" cy="7029.53" r="140.315" /> 
<circle cx="33529.5" cy="8029.53" r="140.315" /> 
<circle cx="33529.5" cy="9029.53" r="140.315" /> 
<circle cx="10029.5" cy="15529.5" r="140.315" /> 
<circle cx="10029.5" cy="16529.5" r="140.315" /> 
<circle cx="12029.5" cy="15029.5" r="140.315" /> 
<circle cx="12029.5" cy="16029.5" r="140.315" /> 
<circle cx="8529.53" cy="15029.5" r="140.315" /> 
<circle cx="8529.53" cy="17029.5" r="140.315" /> 
<circle cx="5529.53" cy="15029.5" r="140.315" /> 
<circle cx="5529.53" cy="17029.5" r="140.315" /> 
<circle cx="8529.53" cy="21029.5" r="140.315" /> 
<circle cx="8529.53" cy="23029.5" r="140.315" /> 
<circle cx="5529.53" cy="21029.5" r="140.315" /> 
<circle cx="5529.53" cy="23029.5" r="140.315" /> 
<circle cx="27029.5" cy="8029.53" r="98.4252" /> 
<circle cx="27029.5" cy="7029.53" r="98.4252" /> 
<circle cx="27029.5" cy="9029.53" r="98.4252" /> 
<circle cx="14029.5" cy="7029.53" r="98.4252" /> 
<circle cx="14029.5" cy="8029.53" r="98.4252" /> 
<circle cx="14029.5" cy="9029.53" r="98.4252" /> 
<circle cx="14029.5" cy="10029.5" r="98.4252" /> 
<circle cx="14029.5" cy="11029.5" r="98.4252" /> 
<circle cx="14029.5" cy="12029.5" r="98.4252" /> 
<circle cx="14029.5" cy="13029.5" r="98.4252" /> 
<circle cx="14029.5" cy="14029.5" r="98.4252" /> 
<circle cx="14029.5" cy="15029.5" r="98.4252" /> 
<circle cx="14029.5" cy="16029.5" r="98.4252" /> 
<circle cx="14029.5" cy="17029.5" r="98.4252" /> 
<circle cx="14029.5" cy="18029.5" r="98.4252" /> 
<circle cx="14029.5" cy="19029.5" r="98.4252" /> 
<circle cx="14029.5" cy="20029.5" r="98.4252" /> 
<circle cx="14029.5" cy="21029.5" r="98.4252" /> 
<circle cx="20029.5" cy="7029.53" r="98.4252" /> 
<circle cx="20029.5" cy="8029.53" r="98.4252" /> 
<circle cx="20029.5" cy="9029.53" r="98.4252" /> 
<circle cx="20029.5" cy="10029.5" r="98.4252" /> 
<circle cx="20029.5" cy="11029.5" r="98.4252" /> 
<circle cx="20029.5" cy="12029.5" r="98.4252" /> 
<circle cx="20029.5" cy="13029.5" r="98.4252" /> 
<circle cx="20029.5" cy="14029.5" r="98.4252" /> 
<circle cx="20029.5" cy="15029.5" r="98.4252" /> 
<circle cx="20029.5" cy="16029.5" r="98.4252" /> 
<circle cx="20029.5" cy="17029.5" r="98.4252" /> 
<circle cx="20029.5" cy="18029.5" r="98.4252" /> 
<circle cx="20029.5" cy="19029.5" r="98.4252" /> 
<circle cx="20029.5" cy="20029.5" r="98.4252" /> 
<circle cx="20029.5" cy="21029.5" r="98.4252" /> 
<circle cx="13029.5" cy="33029.5" r="140.315" /> 
<circle cx="13029.5" cy="32029.5" r="140.315" /> 
<circle cx="13029.5" cy="31029.5" r="140.315" /> 
<circle cx="13029.5" cy="30029.5" r="140.315" /> 
<circle cx="13029.5" cy="29029.5" r="140.315" /> 
<circle cx="13029.5" cy="28029.5" r="140.315" /> 
<circle cx="13029.5" cy="27029.5" r="140.315" /> 
<circle cx="13029.5" cy="26029.5" r="140.315" /> 
</g> 
</svg>
